<svg width="100%" height="100%" xmlns="http://www.w3.org/2000/svg">
  <rect width="100%" height="100%" fill="#f8f6f1"></rect>
  <g stroke="#c0d6f9" stroke-width="1">
    <line x1="0" y1="50" x2="100%" y2="50"></line>
    <line x1="0" y1="100" x2="100%" y2="100"></line>
    <line x1="0" y1="150" x2="100%" y2="150"></line>
    <line x1="0" y1="200" x2="100%" y2="200"></line>
    <line x1="0" y1="250" x2="100%" y2="250"></line>
    <line x1="0" y1="300" x2="100%" y2="300"></line>
    <line x1="0" y1="350" x2="100%" y2="350"></line>
    <line x1="0" y1="400" x2="100%" y2="400"></line>
    <line x1="0" y1="450" x2="100%" y2="450"></line>
    <line x1="0" y1="500" x2="100%" y2="500"></line>
    <line x1="0" y1="550" x2="100%" y2="550"></line>
    <line x1="0" y1="600" x2="100%" y2="600"></line>
    <line x1="0" y1="650" x2="100%" y2="650"></line>
    <line x1="0" y1="700" x2="100%" y2="700"></line>
    <line x1="0" y1="750" x2="100%" y2="750"></line>
    <line x1="0" y1="800" x2="100%" y2="800"></line>
    <line x1="0" y1="850" x2="100%" y2="850"></line>
    <line x1="0" y1="900" x2="100%" y2="900"></line>
    <line x1="0" y1="950" x2="100%" y2="950"></line>
    <line x1="0" y1="1000" x2="100%" y2="1000"></line>
  </g>
  <line x1="100" y1="0" x2="100" y2="100%" stroke="#f9cccc" stroke-width="1"></line>
  <line x1="102" y1="0" x2="102" y2="100%" stroke="#f9cccc" stroke-width="1"></line>
</svg>